<mxGraphModel dx="481" dy="934" grid="0" gridSize="10" guides="1" tooltips="1" connect="1" arrows="1" fold="1" page="0" pageScale="1" pageWidth="827" pageHeight="1169" math="1" shadow="0"><root><mxCell id="0"/><mxCell id="1" parent="0"/><mxCell id="JmZaYt9F0MbecMUHe7vm-9" style="edgeStyle=none;orthogonalLoop=1;jettySize=auto;html=1;fontFamily=Times New Roman;sketch=0;shadow=0;" parent="1" source="JmZaYt9F0MbecMUHe7vm-1" target="JmZaYt9F0MbecMUHe7vm-3" edge="1"><mxGeometry relative="1" as="geometry"/></mxCell><mxCell id="JmZaYt9F0MbecMUHe7vm-10" style="edgeStyle=none;orthogonalLoop=1;jettySize=auto;html=1;exitX=1;exitY=1;exitDx=0;exitDy=0;fontFamily=Times New Roman;sketch=0;shadow=0;" parent="1" source="JmZaYt9F0MbecMUHe7vm-1" target="JmZaYt9F0MbecMUHe7vm-3" edge="1"><mxGeometry relative="1" as="geometry"><mxPoint x="433" y="508" as="targetPoint"/></mxGeometry></mxCell><mxCell id="JmZaYt9F0MbecMUHe7vm-11" style="edgeStyle=none;orthogonalLoop=1;jettySize=auto;html=1;exitX=0;exitY=1;exitDx=0;exitDy=0;fontFamily=Times New Roman;sketch=0;shadow=0;" parent="1" source="JmZaYt9F0MbecMUHe7vm-1" target="JmZaYt9F0MbecMUHe7vm-3" edge="1"><mxGeometry relative="1" as="geometry"><mxPoint x="253" y="500" as="targetPoint"/></mxGeometry></mxCell><mxCell id="JmZaYt9F0MbecMUHe7vm-1" value="&lt;span&gt;\(Z=\{Z_1,Z_2,Z_3,\cdots \}\)&lt;/span&gt;" style="ellipse;whiteSpace=wrap;html=1;fontFamily=Times New Roman;sketch=0;shadow=0;" parent="1" vertex="1"><mxGeometry x="260.5" y="361" width="175" height="50.01" as="geometry"/></mxCell><mxCell id="JmZaYt9F0MbecMUHe7vm-6" style="orthogonalLoop=1;jettySize=auto;html=1;entryX=0;entryY=0;entryDx=0;entryDy=0;fontFamily=Times New Roman;sketch=0;shadow=0;" parent="1" source="JmZaYt9F0MbecMUHe7vm-2" target="JmZaYt9F0MbecMUHe7vm-1" edge="1"><mxGeometry relative="1" as="geometry"/></mxCell><mxCell id="JmZaYt9F0MbecMUHe7vm-7" style="edgeStyle=none;orthogonalLoop=1;jettySize=auto;html=1;fontFamily=Times New Roman;sketch=0;shadow=0;" parent="1" source="JmZaYt9F0MbecMUHe7vm-2" target="JmZaYt9F0MbecMUHe7vm-1" edge="1"><mxGeometry relative="1" as="geometry"/></mxCell><mxCell id="JmZaYt9F0MbecMUHe7vm-8" style="edgeStyle=none;orthogonalLoop=1;jettySize=auto;html=1;entryX=0.78;entryY=0.05;entryDx=0;entryDy=0;entryPerimeter=0;fontFamily=Times New Roman;sketch=0;shadow=0;" parent="1" source="JmZaYt9F0MbecMUHe7vm-2" target="JmZaYt9F0MbecMUHe7vm-1" edge="1"><mxGeometry relative="1" as="geometry"/></mxCell><mxCell id="JmZaYt9F0MbecMUHe7vm-2" value="\(X\)" style="text;html=1;strokeColor=none;fillColor=none;align=center;verticalAlign=middle;whiteSpace=wrap;fontFamily=Times New Roman;sketch=0;shadow=0;" parent="1" vertex="1"><mxGeometry x="328" y="256" width="40" height="20" as="geometry"/></mxCell><mxCell id="JmZaYt9F0MbecMUHe7vm-3" value="\(Y\)" style="text;html=1;strokeColor=none;fillColor=none;align=center;verticalAlign=middle;whiteSpace=wrap;fontFamily=Times New Roman;sketch=0;shadow=0;" parent="1" vertex="1"><mxGeometry x="328" y="484" width="40" height="20" as="geometry"/></mxCell><mxCell id="JmZaYt9F0MbecMUHe7vm-13" value="前门调整 Frontdoor Adjustment" style="text;html=1;strokeColor=none;fillColor=none;align=center;verticalAlign=middle;whiteSpace=wrap;fontFamily=Times New Roman;sketch=0;shadow=0;" parent="1" vertex="1"><mxGeometry x="468" y="376" width="193" height="20" as="geometry"/></mxCell><mxCell id="JmZaYt9F0MbecMUHe7vm-15" style="edgeStyle=none;orthogonalLoop=1;jettySize=auto;html=1;fontFamily=Times New Roman;sketch=0;shadow=0;" parent="1" source="JmZaYt9F0MbecMUHe7vm-18" target="JmZaYt9F0MbecMUHe7vm-23" edge="1"><mxGeometry relative="1" as="geometry"/></mxCell><mxCell id="JmZaYt9F0MbecMUHe7vm-16" style="edgeStyle=none;orthogonalLoop=1;jettySize=auto;html=1;exitX=1;exitY=1;exitDx=0;exitDy=0;fontFamily=Times New Roman;sketch=0;shadow=0;" parent="1" source="JmZaYt9F0MbecMUHe7vm-18" target="JmZaYt9F0MbecMUHe7vm-23" edge="1"><mxGeometry relative="1" as="geometry"><mxPoint x="431" y="875" as="targetPoint"/></mxGeometry></mxCell><mxCell id="JmZaYt9F0MbecMUHe7vm-17" style="edgeStyle=none;orthogonalLoop=1;jettySize=auto;html=1;exitX=0;exitY=1;exitDx=0;exitDy=0;fontFamily=Times New Roman;sketch=0;shadow=0;" parent="1" source="JmZaYt9F0MbecMUHe7vm-18" target="JmZaYt9F0MbecMUHe7vm-23" edge="1"><mxGeometry relative="1" as="geometry"><mxPoint x="251" y="867" as="targetPoint"/></mxGeometry></mxCell><mxCell id="JmZaYt9F0MbecMUHe7vm-18" value="&lt;span&gt;\(Z=\{Z_1,Z_2,Z_3,\cdots \}\)&lt;/span&gt;" style="ellipse;whiteSpace=wrap;html=1;fontFamily=Times New Roman;sketch=0;shadow=0;" parent="1" vertex="1"><mxGeometry x="265" y="664" width="175" height="50.01" as="geometry"/></mxCell><mxCell id="JmZaYt9F0MbecMUHe7vm-19" style="orthogonalLoop=1;jettySize=auto;html=1;entryX=0;entryY=0;entryDx=0;entryDy=0;fontFamily=Times New Roman;sketch=0;shadow=0;" parent="1" source="JmZaYt9F0MbecMUHe7vm-22" target="JmZaYt9F0MbecMUHe7vm-18" edge="1"><mxGeometry relative="1" as="geometry"/></mxCell><mxCell id="JmZaYt9F0MbecMUHe7vm-20" style="edgeStyle=none;orthogonalLoop=1;jettySize=auto;html=1;fontFamily=Times New Roman;sketch=0;shadow=0;" parent="1" source="JmZaYt9F0MbecMUHe7vm-22" target="JmZaYt9F0MbecMUHe7vm-18" edge="1"><mxGeometry relative="1" as="geometry"/></mxCell><mxCell id="JmZaYt9F0MbecMUHe7vm-21" style="edgeStyle=none;orthogonalLoop=1;jettySize=auto;html=1;entryX=0.78;entryY=0.05;entryDx=0;entryDy=0;entryPerimeter=0;fontFamily=Times New Roman;sketch=0;shadow=0;" parent="1" source="JmZaYt9F0MbecMUHe7vm-22" target="JmZaYt9F0MbecMUHe7vm-18" edge="1"><mxGeometry relative="1" as="geometry"/></mxCell><mxCell id="JmZaYt9F0MbecMUHe7vm-22" value="\(K\)" style="text;html=1;strokeColor=none;fillColor=none;align=center;verticalAlign=middle;whiteSpace=wrap;fontFamily=Times New Roman;sketch=0;shadow=0;" parent="1" vertex="1"><mxGeometry x="332.5" y="591" width="40" height="20" as="geometry"/></mxCell><mxCell id="JmZaYt9F0MbecMUHe7vm-26" style="edgeStyle=none;orthogonalLoop=1;jettySize=auto;html=1;fontFamily=Times New Roman;sketch=0;shadow=0;" parent="1" source="JmZaYt9F0MbecMUHe7vm-23" target="JmZaYt9F0MbecMUHe7vm-25" edge="1"><mxGeometry relative="1" as="geometry"/></mxCell><mxCell id="JmZaYt9F0MbecMUHe7vm-23" value="\(X\)" style="text;html=1;strokeColor=none;fillColor=none;align=center;verticalAlign=middle;whiteSpace=wrap;fontFamily=Times New Roman;sketch=0;shadow=0;" parent="1" vertex="1"><mxGeometry x="332.5" y="785" width="40" height="20" as="geometry"/></mxCell><mxCell id="JmZaYt9F0MbecMUHe7vm-24" value="后门调整" style="text;html=1;strokeColor=none;fillColor=none;align=center;verticalAlign=middle;whiteSpace=wrap;fontFamily=Times New Roman;sketch=0;shadow=0;" parent="1" vertex="1"><mxGeometry x="468" y="673" width="87" height="20" as="geometry"/></mxCell><mxCell id="JmZaYt9F0MbecMUHe7vm-25" value="\(Y\)" style="text;html=1;strokeColor=none;fillColor=none;align=center;verticalAlign=middle;whiteSpace=wrap;fontFamily=Times New Roman;sketch=0;shadow=0;" parent="1" vertex="1"><mxGeometry x="332.5" y="876" width="40" height="20" as="geometry"/></mxCell></root></mxGraphModel>